<?xml version="1.0" encoding="UTF-8"?>
<svg width="28px" height="28px" viewBox="0 0 28 28" version="1.1" xmlns="http://www.w3.org/2000/svg" xmlns:xlink="http://www.w3.org/1999/xlink">
    <!-- Generator: Sketch 43.1 (39012) - http://www.bohemiancoding.com/sketch -->
    <title>debug</title>
    <desc>Created with Sketch.</desc>
    <defs></defs>
    <g id="admin-console" stroke="none" stroke-width="1" fill="none" fill-rule="evenodd">
        <g id="debug" fill-rule="nonzero" fill="#FFFFFF">
            <g id="debug-icon">
                <path d="M4.88554125,9.0915 L3.01866818,7.2145755 C2.67164506,6.8622015 2.10997483,6.8722335 1.76233312,7.2233535 C1.41500071,7.5744735 1.41407284,8.1500595 1.7601681,8.50212 L3.88777244,10.529838 C4.05417034,10.699128 4.28087974,10.659 4.51686784,10.659 L6.24765341,10.659 C5.01513366,12.2265 4.20603162,14.1075 3.90663912,15.9885 L0.888280227,15.9885 C0.397437358,15.9885 0,16.4314755 0,16.929 C0,17.426211 0.397437358,17.8695 0.888280227,17.8695 L3.77550026,17.8695 C3.79096474,19.437 4.18221631,21.0045 4.86481884,22.2585 L4.22056824,22.2585 C3.98458014,22.2585 3.75818003,22.395186 3.59147284,22.5647895 L1.46417778,24.748317 C1.11777324,25.1003775 1.11839182,25.6809795 1.46572423,26.0320995 C1.63954509,26.207346 1.8659452,26.300142 2.09296389,26.300142 C2.32060116,26.300142 2.54854773,26.212989 2.72175,26.0364885 L4.58955094,24.1395 L6.0240369,24.1395 C7.77152412,26.334 10.5158523,27.758544 13.2994602,27.9187425 L13.2994602,9.0915 L4.88554125,9.0915 Z" id="Shape"></path>
                <path d="M26.9477993,15.9885 L23.8669639,15.9885 C23.4834446,14.1075 22.495573,12.2265 21.3382107,10.659 L23.3192117,10.659 C23.5551998,10.659 23.7815999,10.7019495 23.9483071,10.532346 L26.0759114,8.4384795 C26.4220067,8.0861055 26.4210788,7.5506475 26.0737464,7.1995275 C25.7257954,6.848094 25.1641252,6.844959 24.8174114,7.197333 L22.9505383,9.0915 L14.5366193,9.0915 L14.5366193,27.9118455 C17.3202273,27.7281345 20.0150691,26.0205 21.7625563,24.1395 L23.2465286,24.1395 L25.1140203,26.0389965 C25.2875318,26.215497 25.5151691,26.304531 25.7428064,26.304531 C25.9698251,26.304531 26.1965345,26.2170645 26.370046,26.0421315 C26.7173784,25.6910115 26.717997,25.1210685 26.3715925,24.769008 L24.2442974,22.5647895 C24.0778995,22.395186 23.8511901,22.2585 23.6155113,22.2585 L22.9350738,22.2585 C23.6260272,21.0045 24.0228459,19.437 24.0383104,17.8695 L26.9477993,17.8695 C27.4386422,17.8695 27.8360795,17.426211 27.8360795,16.929 C27.8360795,16.4314755 27.4386422,15.9885 26.9477993,15.9885 Z" id="Shape"></path>
                <path d="M8.17174509,7.8375 L19.6643345,7.8375 C19.6643345,5.643 18.5901711,3.992736 16.9775342,2.9610075 L18.1373709,1.809522 C18.484394,1.4580885 18.484394,0.899745 18.1373709,0.547998 C17.7903477,0.1965645 17.2283682,0.202521 16.8810358,0.554268 L15.2034481,2.257827 C14.7896184,2.161896 14.3603241,2.107974 13.9177305,2.107974 C13.4751368,2.107974 13.0458426,2.1640905 12.6320129,2.2600215 L10.9541159,0.559911 C10.6070928,0.2084775 10.0451132,0.2084775 9.69778082,0.559911 C9.35044841,0.9113445 9.3507577,1.4819145 9.69778082,1.8336615 L10.8576175,2.961321 C9.24590847,3.9930495 8.17174509,5.643 8.17174509,7.8375 Z" id="Shape"></path>
            </g>
        </g>
    </g>
</svg>