<?xml version="1.0" encoding="UTF-8"?>
<svg width="28px" height="28px" viewBox="0 0 28 28" version="1.1" xmlns="http://www.w3.org/2000/svg" xmlns:xlink="http://www.w3.org/1999/xlink">
    <!-- Generator: Sketch 43.1 (39012) - http://www.bohemiancoding.com/sketch -->
    <title>reset</title>
    <desc>Created with Sketch.</desc>
    <defs></defs>
    <g id="admin-console" stroke="none" stroke-width="1" fill="none" fill-rule="evenodd">
        <g id="reset" fill-rule="nonzero" fill="#FFFFFF">
            <path d="M25.4666622,1.03579114 C24.4988644,0.94810075 23.6447343,1.67436407 23.5584011,2.65737604 L23.4734211,3.63049191 C20.9922216,1.28621728 17.7843619,0 14.3748777,0 C7.00002102,0 1,6.09406945 1,13.5848626 C1,21.0756557 7.00002102,27.17 14.3748777,27.17 C19.4709713,27.17 24.0555611,24.2935354 26.338925,19.6629883 C26.7738386,18.7805866 26.4230931,17.7071353 25.5540779,17.2648349 C24.6856039,16.823909 23.6290373,17.1796186 23.1933118,18.0620203 C21.5096794,21.4756228 18.1310478,23.5961357 14.3748777,23.5961357 C8.93994662,23.5961357 4.51828025,19.1049586 4.51828025,13.5845877 C4.51828025,8.06449165 8.93994662,3.57331448 14.3748777,3.57331448 C16.9126403,3.57331448 19.2985756,4.54093253 21.1345766,6.30188741 L19.719416,6.17406287 C18.7554073,6.08472314 17.8980294,6.8126358 17.811155,7.79537288 C17.7256337,8.77838485 18.4401152,9.64594239 19.4079129,9.73363278 L24.6647649,10.2080955 C24.7164566,10.2130435 24.7684188,10.2149678 24.8201105,10.2149678 C25.2314787,10.2149678 25.6314801,10.0687255 25.9492078,9.79795739 C26.3069899,9.49447718 26.5310773,9.05822439 26.5724847,8.5862357 L27.0634201,2.97295147 C27.149212,1.99048928 26.4344599,1.12293174 25.4666622,1.03579114 Z" id="Shape"></path>
        </g>
    </g>
</svg>