<?xml version="1.0" encoding="UTF-8"?>
<svg width="40px" height="40px" viewBox="0 0 40 40" version="1.1" xmlns="http://www.w3.org/2000/svg" xmlns:xlink="http://www.w3.org/1999/xlink">
    <!-- Generator: Sketch 43.1 (39012) - http://www.bohemiancoding.com/sketch -->
    <title>brightness</title>
    <desc>Created with Sketch.</desc>
    <defs></defs>
    <g id="admin-console" stroke="none" stroke-width="1" fill="none" fill-rule="evenodd">
        <g id="brightness" fill-rule="nonzero" fill="#FFFFFF">
            <g id="Group" transform="translate(1.000000, 1.000000)">
                <path d="M19.1276596,5.72119565 C20.18194,5.72119565 21.0404255,4.86526874 21.0404255,3.81413043 L21.0404255,1.90706522 C21.0404255,0.855926909 20.18194,0 19.1276596,0 C18.0733791,0 17.2148936,0.855926909 17.2148936,1.90706522 L17.2148936,3.81413043 C17.2148936,4.86526874 18.0733791,5.72119565 19.1276596,5.72119565 Z" id="Shape"></path>
                <path d="M19.1276596,32.4201087 C18.0733791,32.4201087 17.2148936,33.2760356 17.2148936,34.3271739 L17.2148936,36.2342391 C17.2148936,37.2853774 18.0733791,38.1413043 19.1276596,38.1413043 C20.18194,38.1413043 21.0404255,37.2853774 21.0404255,36.2342391 L21.0404255,34.3271739 C21.0404255,33.2760356 20.18194,32.4201087 19.1276596,32.4201087 Z" id="Shape"></path>
                <path d="M36.3425532,17.163587 L34.4297872,17.163587 C33.3755068,17.163587 32.5170213,18.0195139 32.5170213,19.0706522 C32.5170213,20.1217905 33.3755068,20.9777174 34.4297872,20.9777174 L36.3425532,20.9777174 C37.3968336,20.9777174 38.2553191,20.1217905 38.2553191,19.0706522 C38.2553191,18.0195139 37.3968336,17.163587 36.3425532,17.163587 Z" id="Shape"></path>
                <path d="M5.73829787,19.0706522 C5.73829787,18.0195139 4.87981236,17.163587 3.82553191,17.163587 L1.91276596,17.163587 C0.858485508,17.163587 0,18.0195139 0,19.0706522 C0,20.1217905 0.858485508,20.9777174 1.91276596,20.9777174 L3.82553191,20.9777174 C4.87981236,20.9777174 5.73829787,20.1217905 5.73829787,19.0706522 Z" id="Shape"></path>
                <path d="M31.2970682,9.63293179 L32.6525716,8.28146825 C33.3980985,7.5381633 33.3980985,6.32935425 32.6525716,5.5860493 C31.9070447,4.84274435 30.6946222,4.84274435 29.9490953,5.5860493 L28.5935919,6.93751284 C27.848065,7.68081779 27.848065,8.88962684 28.5935919,9.63293179 C29.3391188,10.3762367 30.5515413,10.3762367 31.2970682,9.63293179 Z" id="Shape"></path>
                <path d="M6.95825096,28.5083726 L5.60274753,29.8598361 C4.85722064,30.603141 4.85722064,31.8119501 5.60274753,32.555255 C6.34827442,33.29856 7.56069693,33.29856 8.30622382,32.555255 L9.66172726,31.2037915 C10.4072541,30.4604866 10.4072541,29.2516775 9.66172726,28.5083726 C8.91620037,27.7650676 7.70377785,27.7650676 6.95825096,28.5083726 Z" id="Shape"></path>
                <path d="M31.2970682,28.5083726 C30.5515413,27.7650676 29.3391188,27.7650676 28.5935919,28.5083726 C27.848065,29.2516775 27.848065,30.4604866 28.5935919,31.2037915 L29.9490953,32.555255 C30.6946222,33.29856 31.9070447,33.29856 32.6525716,32.555255 C33.3980985,31.8119501 33.3980985,30.603141 32.6525716,29.8598361 L31.2970682,28.5083726 Z" id="Shape"></path>
                <path d="M6.95825096,9.63293179 C7.70377785,10.3762367 8.91620037,10.3762367 9.66172726,9.63293179 C10.4072541,8.88962684 10.4072541,7.68081779 9.66172726,6.93751284 L8.30622382,5.5860493 C7.56069693,4.84274435 6.34827442,4.84274435 5.60274753,5.5860493 C4.85722064,6.32935425 4.85722064,7.5381633 5.60274753,8.28146825 L6.95825096,9.63293179 Z" id="Shape"></path>
                <ellipse id="Oval" cx="19.1276596" cy="19.0706522" rx="9.56382979" ry="9.53532609"></ellipse>
            </g>
        </g>
    </g>
</svg>