<?xml version="1.0" encoding="UTF-8"?>
<svg width="40px" height="40px" viewBox="0 0 40 40" version="1.1" xmlns="http://www.w3.org/2000/svg" xmlns:xlink="http://www.w3.org/1999/xlink">
    <!-- Generator: Sketch 43.1 (39012) - http://www.bohemiancoding.com/sketch -->
    <title>volume</title>
    <desc>Created with Sketch.</desc>
    <defs></defs>
    <g id="admin-console" stroke="none" stroke-width="1" fill="none" fill-rule="evenodd">
        <g id="volume" fill-rule="nonzero" fill="#FFFFFF">
            <path d="M31.4617021,8.14309401 C30.8680851,7.35165371 30.8680851,6.16449325 31.6595745,5.57091302 L31.6595745,5.57091302 C32.4510638,4.77947272 33.8361702,4.77947272 34.6276596,5.7687731 C37.5957447,9.33025447 39.5744681,14.2767564 39.5744681,19.6189784 C39.5744681,24.9612005 37.5957447,29.9077024 34.4297872,33.6670438 C33.6382979,34.6563442 32.2531915,34.6563442 31.4617021,33.8649039 L31.4617021,33.8649039 C30.6702128,33.0734636 30.6702128,32.0841632 31.2638298,31.2927229 C33.8361702,28.1269617 35.4191489,24.1697602 35.4191489,19.8168385 C35.4191489,15.4639168 34.0340426,11.3088552 31.4617021,8.14309401 Z M27.7021277,19.6189784 C27.7021277,21.7954393 26.9106383,23.77404 25.7234043,25.5547807 C25.1297872,26.346221 25.1297872,27.5333815 25.9212766,28.1269617 L25.9212766,28.1269617 C26.712766,28.918402 28.0978723,28.918402 28.8893617,27.9291016 C30.6702128,25.5547807 31.6595745,22.7847396 31.6595745,19.6189784 C31.6595745,16.4532172 30.6702128,13.6831761 28.8893617,11.3088552 C28.0978723,10.3195549 26.712766,10.3195549 25.9212766,11.1109952 L25.9212766,11.1109952 C25.1297872,11.9024355 25.1297872,12.8917358 25.7234043,13.6831761 C26.9106383,15.4639168 27.7021277,17.4425176 27.7021277,19.6189784 Z M21.7659574,15.2660568 L21.5680851,15.4639168 C20.3808511,16.6510773 19.787234,18.0360978 19.787234,19.6189784 L19.787234,19.6189784 C19.787234,21.201859 20.3808511,22.5868796 21.5680851,23.77404 L21.7659574,23.9719001 C22.9531915,22.9825997 23.7446809,21.3997191 23.7446809,19.6189784 C23.7446809,17.8382377 22.9531915,16.2553571 21.7659574,15.2660568 Z M14.6425532,6.36235333 L7.91489362,11.7045754 L1.9787234,11.7045754 C0.791489362,11.7045754 0,12.4960157 0,13.6831761 L0,25.5547807 C0,26.7419412 0.791489362,27.5333815 1.9787234,27.5333815 L7.91489362,27.5333815 L14.6425532,32.8756035 C16.0276596,33.8649039 17.8085106,33.0734636 17.8085106,31.2927229 L17.8085106,7.94523394 C17.8085106,6.16449325 15.8297872,5.37305295 14.6425532,6.36235333 Z" id="Shape"></path>
        </g>
    </g>
</svg>